<?xml version="1.0" standalone="no"?>
<!DOCTYPE svg PUBLIC "-//W3C//DTD SVG 20010904//EN" "http://www.w3.org/TR/2001/REC-SVG-20010904/DTD/svg10.dtd">
<svg version="1.0" xmlns="http://www.w3.org/2000/svg" width="500.000000pt" height="500.000000pt" viewBox="0 0 500.000000 500.000000" preserveAspectRatio="xMidYMid meet">

    <g transform="translate(0.000000,500.000000) scale(0.100000,-0.100000)" fill="currentColor" stroke="none">
        <path d="M1515 4990 c-11 -5 -101 -34 -200 -65 -321 -101 -745 -301 -745 -350
0 -7 -22 -30 -50 -51 -27 -21 -50 -41 -50 -45 0 -4 -26 -26 -57 -49 -109 -82
-136 -109 -201 -213 -80 -129 -154 -323 -181 -482 -19 -113 -31 -290 -31 -471
0 -164 2 -184 19 -205 l19 -24 354 -5 353 -5 5 -1308 5 -1309 24 -19 c23 -18
57 -19 1221 -19 l1198 0 23 -47 c12 -27 55 -80 95 -120 83 -83 186 -138 324
-174 98 -26 265 -31 315 -9 17 7 48 12 70 11 71 -4 158 48 193 114 8 15 19 19
49 17 36 -3 43 1 95 55 31 33 67 82 82 111 29 58 49 72 99 72 57 0 149 34 214
78 121 82 200 201 229 344 17 83 17 89 0 165 -35 152 -113 269 -226 339 l-59
36 0 129 c0 120 -2 134 -31 206 -59 148 -156 264 -284 342 -152 92 -306 120
-472 85 l-75 -15 -35 30 c-19 17 -52 40 -74 51 l-40 21 2 407 3 407 352 5
c321 5 354 7 370 23 37 37 26 529 -16 732 -52 250 -177 486 -343 646 -218 211
-463 341 -939 498 -196 64 -218 68 -280 50 -53 -16 -73 -41 -118 -146 -46
-108 -82 -162 -152 -231 -189 -185 -483 -187 -680 -5 -70 65 -99 111 -139 222
-40 109 -53 126 -115 156 -56 26 -86 30 -120 15z m78 -147 c8 -10 29 -54 46
-98 54 -140 117 -223 230 -300 129 -88 305 -129 452 -105 251 41 444 207 519
445 15 46 37 75 58 75 30 0 124 -35 129 -47 8 -20 -33 -144 -79 -241 -36 -76
-55 -101 -152 -197 -91 -90 -127 -119 -201 -158 -133 -71 -221 -92 -380 -91
-114 1 -140 4 -215 29 -47 15 -107 39 -135 52 -215 108 -392 333 -444 564 -10
44 -9 46 59 71 59 22 93 22 113 1z m-296 -105 c7 -46 46 -155 80 -223 144
-287 397 -461 735 -505 260 -34 562 60 759 237 106 95 215 279 263 443 16 57
29 84 38 82 54 -12 308 -117 433 -179 325 -161 567 -431 648 -723 39 -141 59
-341 55 -555 l-3 -150 -299 -3 c-165 -1 -303 1 -307 5 -5 5 -10 105 -11 224
-3 234 -7 249 -57 249 -15 0 -36 -6 -47 -14 -18 -14 -19 -36 -24 -693 l-5
-678 -100 -6 c-115 -7 -183 -29 -275 -91 -79 -52 -162 -161 -174 -230 -3 -13
-5 -23 -6 -23 -15 0 -25 -242 -10 -260 9 -10 4 -19 -23 -39 -19 -14 -37 -26
-41 -26 -20 0 -114 -84 -157 -140 -76 -102 -139 -280 -139 -395 1 -170 74
-348 190 -464 51 -52 65 -71 54 -75 -9 -3 -455 -6 -993 -6 -747 0 -980 3 -989
12 -9 9 -12 368 -12 1554 0 1389 -2 1544 -16 1558 -18 19 -75 21 -92 4 -9 -9
-12 -73 -12 -228 0 -155 -3 -219 -12 -228 -9 -9 -90 -12 -304 -12 -250 0 -293
2 -304 15 -18 21 -7 374 15 516 24 152 75 299 142 410 31 52 65 106 77 121 12
14 36 51 55 82 33 54 101 126 121 126 5 0 17 8 27 18 10 10 37 26 60 35 23 9
65 31 95 50 129 83 533 255 552 236 6 -5 11 -19 13 -31z m2256 -2623 c65 -10
129 -44 184 -96 28 -27 60 -49 71 -49 10 0 54 9 97 20 138 35 240 24 367 -42
93 -48 170 -120 231 -214 73 -114 96 -216 77 -342 -7 -41 -9 -84 -6 -95 3 -14
27 -34 61 -52 70 -37 169 -138 196 -200 28 -62 39 -140 29 -201 -24 -149 -149
-280 -298 -313 -42 -9 -43 -9 -57 25 -25 61 -29 60 -349 -39 l-69 -21 -26 33
c-14 18 -64 89 -111 159 -80 119 -87 127 -120 130 -19 1 -40 -1 -46 -5 -6 -5
-57 -77 -113 -160 -56 -84 -107 -153 -115 -153 -7 0 -79 20 -160 45 -172 52
-200 55 -236 20 l-26 -25 -73 35 c-180 86 -301 273 -301 465 0 191 118 373
300 465 64 32 70 38 70 66 0 17 -7 56 -16 87 -37 127 -1 252 103 355 66 66
122 96 196 107 52 8 67 7 140 -5z m362 -1609 c47 -74 93 -137 101 -140 28 -11
52 -6 180 35 130 42 153 42 139 0 -3 -12 -31 -48 -61 -80 -30 -32 -54 -66 -54
-74 0 -21 -104 -89 -156 -103 -60 -15 -321 -8 -394 10 -126 32 -231 100 -306
195 -37 47 -42 58 -30 69 11 12 32 8 129 -22 175 -55 168 -57 262 95 62 100
94 149 100 149 2 0 42 -60 90 -134z" />
        <path d="M3962 1798 c-16 -16 -15 -73 1 -85 6 -6 23 -13 37 -16 76 -16 130
-36 161 -60 45 -34 89 -116 96 -179 7 -57 23 -78 62 -78 44 0 66 23 65 68 -4
157 -101 291 -250 343 -60 21 -154 25 -172 7z" />
    </g>
</svg>