<?xml version="1.0" standalone="no"?>
<!DOCTYPE svg PUBLIC "-//W3C//DTD SVG 20010904//EN" "http://www.w3.org/TR/2001/REC-SVG-20010904/DTD/svg10.dtd">
<svg version="1.0" xmlns="http://www.w3.org/2000/svg" width="512.000000pt" height="512.000000pt" viewBox="0 0 512.000000 512.000000" preserveAspectRatio="xMidYMid meet">

    <g transform="translate(0.000000,512.000000) scale(0.100000,-0.100000)" fill="currentColor" stroke="currentColor">
        <path d="M2025 4935 c-24 -24 -25 -28 -25 -182 l0 -157 -161 -163 -162 -162 7
-73 c12 -129 47 -359 72 -483 31 -157 69 -272 109 -340 l33 -55 -34 -87 c-45
-114 -115 -337 -150 -483 l-28 -115 -3 -1213 -4 -1212 25 -25 25 -25 351 0
351 0 23 23 c26 27 21 -26 67 635 19 259 36 472 39 472 3 0 20 -213 39 -472
46 -661 41 -608 67 -635 l23 -23 351 0 351 0 25 25 25 25 -4 1212 -3 1213 -28
115 c-36 148 -95 338 -145 468 l-39 104 30 47 c42 68 83 200 117 375 28 144
71 448 71 503 0 21 -35 62 -160 188 l-160 161 0 157 c0 154 -1 158 -25 182
-29 30 -74 32 -106 6 -23 -18 -24 -26 -29 -172 l-5 -153 -197 -65 -198 -66
-197 66 -198 65 -5 153 c-5 146 -6 154 -29 172 -32 26 -77 24 -106 -6z m300
-535 c115 -38 221 -70 234 -70 14 0 124 33 243 72 l218 73 131 -131 131 -131
-12 -104 c-29 -256 -83 -512 -130 -615 l-27 -60 -124 -22 c-408 -71 -450 -71
-857 0 l-123 21 -25 48 c-45 89 -105 369 -134 628 l-12 103 128 129 c71 71
133 129 139 129 6 0 105 -31 220 -70z m-97 -1154 c79 -13 148 -28 154 -34 7
-7 0 -70 -21 -195 -36 -213 -37 -244 -14 -269 21 -24 84 -24 106 0 10 11 28
91 52 232 20 118 40 219 46 225 19 19 29 -15 64 -225 24 -141 42 -221 52 -232
20 -23 80 -24 105 -1 25 22 23 53 -13 270 -30 179 -31 187 -13 200 10 7 27 13
38 13 11 0 78 10 149 22 110 18 130 19 141 7 18 -19 106 -267 144 -404 72
-259 67 -158 67 -1410 l0 -1130 -239 -3 c-135 -1 -244 2 -249 7 -5 5 -44 500
-87 1101 -86 1209 -76 1130 -150 1130 -74 0 -64 79 -150 -1130 -43 -601 -82
-1096 -87 -1101 -5 -5 -114 -8 -249 -7 l-239 3 0 1130 c0 1260 -5 1155 72
1425 38 133 120 367 136 388 12 16 18 16 185 -12z" />
    </g>
</svg>