<?xml version="1.0" standalone="no"?>
<!DOCTYPE svg PUBLIC "-//W3C//DTD SVG 20010904//EN" "http://www.w3.org/TR/2001/REC-SVG-20010904/DTD/svg10.dtd">
<svg version="1.0" xmlns="http://www.w3.org/2000/svg" width="500.000000pt" height="500.000000pt" viewBox="0 0 500.000000 500.000000" preserveAspectRatio="xMidYMid meet">

    <g transform="translate(0.000000,500.000000) scale(0.100000,-0.100000)" fill="currentColor" stroke="none">
        <path d="M1728 4984 c-166 -40 -395 -195 -508 -344 -75 -99 -251 -358 -333
-491 -81 -131 -197 -346 -197 -364 0 -50 310 -255 630 -415 l136 -68 43 -373
c35 -303 42 -398 39 -499 l-4 -125 -133 -365 c-73 -201 -216 -597 -318 -880
-101 -283 -199 -554 -216 -603 -25 -67 -29 -91 -21 -105 21 -33 287 -157 460
-215 246 -81 428 -115 702 -132 135 -9 365 3 387 19 9 7 31 76 55 181 22 94
44 178 48 189 5 12 21 -42 52 -173 30 -133 48 -195 60 -201 35 -19 311 -22
470 -6 85 9 204 16 263 16 134 0 263 36 337 95 8 6 31 17 50 24 19 7 94 37
165 67 163 68 259 122 263 150 2 11 -13 63 -32 115 -94 258 -238 661 -237 666
0 3 -12 36 -169 463 -153 418 -242 663 -245 680 -2 8 -4 16 -4 18 -4 9 -1 365
3 369 2 3 2 11 0 18 -3 7 11 141 30 297 20 157 36 290 36 296 0 6 75 50 168
96 337 171 581 335 594 401 16 74 -468 830 -609 952 -155 134 -291 211 -445
253 -63 16 -69 11 -109 -101 -17 -49 -37 -96 -43 -104 -8 -11 -78 -20 -302
-39 l-290 -24 -285 24 c-156 13 -292 24 -301 24 -12 0 -26 29 -53 109 -32 97
-48 123 -73 120 -4 0 -33 -7 -64 -15z m49 -66 c5 -7 20 -42 33 -78 91 -256
263 -644 397 -895 150 -279 387 -696 467 -817 42 -65 80 -128 85 -141 5 -13
20 -36 33 -53 49 -60 180 -273 173 -283 -4 -8 -117 -11 -341 -11 l-335 0 3
-22 3 -23 550 -5 550 -5 0 -120 0 -120 -895 0 -895 0 0 120 0 120 113 3 c62 1
113 7 114 12 5 34 2 35 -111 40 -87 4 -116 8 -122 20 -4 8 -25 170 -47 360
-36 307 -39 355 -30 435 14 124 3 525 -17 655 -30 199 -90 413 -146 522 l-22
42 49 43 c27 24 78 62 114 84 36 23 78 51 93 61 28 19 142 67 163 68 6 0 16
-6 21 -12z m1579 -29 c80 -38 197 -115 259 -171 l50 -46 -24 -48 c-78 -162
-128 -366 -156 -644 -18 -173 -19 -308 -4 -491 11 -130 10 -143 -32 -484 -23
-192 -47 -353 -53 -357 -6 -4 -84 -8 -174 -8 l-163 0 -77 120 c-253 392 -303
471 -325 511 -13 24 -39 69 -59 99 -19 30 -45 73 -57 96 l-23 41 65 114 c154
268 235 419 351 654 106 214 236 500 236 518 0 3 13 35 30 72 30 66 30 67 62
60 18 -4 60 -20 94 -36z m-1181 -204 c88 -8 166 -15 173 -15 24 0 11 -19 -33
-50 -160 -110 -193 -261 -69 -319 42 -20 44 -23 44 -65 0 -114 42 -313 67
-323 8 -3 21 1 29 9 12 12 12 21 -1 68 -9 30 -19 62 -22 70 -3 8 -8 63 -10
123 l-5 108 42 45 c34 38 67 92 76 127 1 4 3 10 4 15 1 4 2 10 2 13 -1 4 7 14
17 23 16 15 19 15 31 1 7 -8 9 -15 5 -15 -4 0 -3 -6 3 -12 6 -7 11 -17 12 -23
4 -27 41 -95 69 -127 37 -42 38 -61 15 -219 -9 -60 -13 -116 -10 -124 4 -13
46 -23 46 -11 0 2 5 28 11 57 6 30 14 97 17 149 l7 94 30 6 c76 16 110 63 103
140 -6 60 -49 123 -122 179 -31 23 -56 45 -56 50 0 10 46 16 247 32 84 7 156
10 159 6 12 -11 -204 -483 -241 -527 -6 -8 -41 -71 -77 -140 -113 -215 -243
-443 -253 -444 -19 -2 -415 738 -430 804 -2 8 -28 71 -58 140 -78 181 -77 170
-25 170 24 0 115 -7 203 -15z m-811 -235 c43 -121 81 -302 96 -450 21 -215 13
-595 -13 -612 -30 -19 -516 265 -640 374 l-39 33 30 66 c17 36 58 113 92 170
99 164 339 521 381 565 l23 25 17 -33 c9 -18 33 -80 53 -138z m2374 137 c43
-46 282 -399 381 -564 60 -101 111 -205 111 -227 0 -25 -264 -204 -446 -304
-182 -100 -222 -118 -236 -104 -9 9 -12 88 -13 300 0 300 9 401 56 597 30 129
102 325 118 325 4 0 17 -10 29 -23z m-1389 -58 c-11 -23 -22 -51 -23 -63 -2
-11 -8 -34 -15 -49 -6 -16 -11 -34 -11 -42 0 -23 -20 -28 -41 -9 -39 36 -19
105 50 167 53 48 66 47 40 -4z m358 -12 c70 -74 80 -144 23 -162 -28 -9 -40 2
-40 35 0 25 -24 114 -45 163 -13 32 12 17 62 -36z m-837 -2249 c0 -7 -20 -91
-45 -187 -38 -147 -43 -177 -32 -188 29 -29 42 -2 92 190 l50 192 561 3 c442
2 564 -1 571 -10 6 -7 29 -92 53 -188 23 -96 48 -181 55 -188 15 -16 45 -5 45
17 0 9 -20 94 -44 189 -32 126 -41 175 -32 178 7 3 70 3 141 2 l130 -3 118
-325 c64 -179 142 -392 172 -475 30 -82 55 -154 55 -160 0 -5 19 -59 41 -120
79 -211 289 -796 289 -803 0 -12 -162 -100 -245 -133 -44 -18 -87 -38 -95 -45
-9 -8 -36 -20 -60 -29 -25 -9 -54 -24 -65 -34 -26 -24 -61 -35 -70 -21 -3 5
-19 10 -36 10 -22 0 -29 -5 -29 -19 0 -36 -44 -53 -123 -47 -124 11 -158 10
-312 -3 -166 -15 -382 -8 -402 12 -10 10 -81 293 -115 454 -11 55 -32 83 -48
67 -8 -8 -75 -272 -111 -438 -23 -104 -15 -101 -251 -100 -238 1 -383 18 -588
70 -176 44 -315 92 -445 153 -141 67 -188 98 -180 119 4 9 60 163 125 342 65
179 137 375 159 435 23 61 43 121 46 135 3 14 32 99 66 190 33 91 105 289 160
440 55 151 104 287 110 303 l11 27 139 0 c105 0 139 -3 139 -12z" />
        <path d="M2030 2615 c0 -21 5 -25 30 -25 25 0 30 4 30 25 0 21 -5 25 -30 25
-25 0 -30 -4 -30 -25z" />
    </g>
</svg>