<?xml version="1.0" standalone="no"?>
<!DOCTYPE svg PUBLIC "-//W3C//DTD SVG 20010904//EN" "http://www.w3.org/TR/2001/REC-SVG-20010904/DTD/svg10.dtd">
<svg version="1.0" xmlns="http://www.w3.org/2000/svg" width="512.000000pt" height="512.000000pt" viewBox="0 0 512.000000 512.000000" preserveAspectRatio="xMidYMid meet">

    <g transform="translate(0.000000,512.000000) scale(0.100000,-0.100000)" fill="currentColor" stroke="none">
        <path d="M1852 5080 c-18 -4 -49 -19 -69 -33 -28 -20 -146 -173 -238 -309 -5
-8 -109 -50 -230 -93 -121 -43 -251 -93 -290 -113 -142 -70 -280 -193 -367
-327 -26 -38 -179 -324 -342 -635 -224 -428 -296 -573 -296 -600 0 -40 28 -92
62 -114 13 -8 223 -96 466 -195 244 -99 447 -182 450 -186 3 -3 -24 -509 -61
-1123 -38 -614 -68 -1139 -67 -1167 0 -62 25 -106 73 -128 32 -16 160 -17
1617 -17 1457 0 1585 1 1617 17 53 25 73 65 73 145 0 37 -29 546 -65 1130 -36
585 -65 1081 -65 1104 l0 41 441 179 c243 98 454 186 470 196 39 24 69 75 69
118 0 27 -72 172 -296 600 -162 311 -320 602 -350 646 -60 91 -168 199 -257
257 -86 57 -199 106 -417 182 -107 37 -199 74 -205 82 -106 155 -209 289 -237
309 -57 41 -91 44 -254 21 -127 -18 -202 -21 -514 -21 -346 -1 -485 7 -665 39
-11 2 -35 0 -53 -5z m258 -136 c290 -32 688 -28 1002 12 127 16 130 16 156 -3
35 -26 202 -261 202 -285 0 -9 -11 -43 -25 -73 -86 -195 -307 -468 -398 -493
-58 -16 -95 1 -198 90 -125 109 -178 133 -289 133 -111 0 -164 -24 -289 -133
-103 -89 -140 -106 -198 -90 -91 25 -312 298 -398 493 -14 30 -25 63 -25 73 0
22 171 265 202 287 18 13 35 15 78 10 30 -3 111 -13 180 -21z m-515 -436 c111
-220 297 -448 407 -498 83 -38 198 -23 274 35 17 13 34 21 38 18 3 -4 6 -96 6
-205 0 -221 5 -243 63 -278 28 -17 51 -20 170 -20 137 0 137 0 149 25 8 19 8
31 0 50 -11 25 -14 25 -127 25 -166 0 -156 -18 -153 278 l3 237 45 23 c69 35
159 28 213 -16 15 -14 17 -37 17 -224 l0 -208 25 -12 c19 -8 31 -8 50 0 l25
12 0 153 c0 85 3 156 6 160 4 3 21 -5 38 -18 80 -61 191 -73 281 -31 104 48
305 297 403 499 24 48 48 87 54 87 23 0 386 -134 452 -167 123 -61 218 -138
299 -246 72 -94 662 -1216 648 -1230 -17 -17 -862 -357 -872 -351 -5 3 -9 28
-9 55 l0 50 53 23 c28 13 201 83 382 156 182 73 336 138 343 143 22 17 14 65
-13 83 -25 16 -34 13 -388 -130 -321 -130 -385 -153 -388 -143 0 1 -13 201
-28 444 -20 309 -32 447 -41 458 -15 18 -61 20 -78 3 -7 -7 -12 -35 -12 -63 0
-27 47 -828 105 -1778 81 -1327 103 -1732 94 -1743 -17 -21 -3121 -21 -3138 0
-9 11 12 408 94 1743 58 950 105 1751 105 1778 0 28 -5 56 -12 63 -17 17 -63
15 -78 -4 -9 -10 -22 -146 -41 -457 -15 -243 -28 -443 -28 -444 -3 -10 -68 14
-389 143 -319 129 -366 146 -387 136 -20 -9 -25 -19 -25 -46 0 -18 6 -38 13
-43 6 -6 172 -74 367 -153 195 -78 367 -149 383 -156 24 -13 27 -20 27 -64 0
-27 -4 -51 -8 -54 -9 -6 -857 335 -873 351 -9 9 550 1088 614 1183 80 119 200
227 323 289 60 30 437 170 461 171 7 0 33 -41 58 -92z" />
        <path d="M1892 4908 c-25 -25 -12 -63 43 -130 103 -124 392 -342 516 -389 64
-25 154 -25 218 0 68 26 256 151 368 245 196 164 259 286 148 286 -24 0 -40
-11 -80 -58 -104 -120 -248 -238 -407 -333 -72 -43 -88 -49 -138 -49 -50 0
-66 6 -138 49 -159 95 -304 214 -404 330 -43 50 -59 61 -83 61 -17 0 -36 -5
-43 -12z" />
        <path d="M2516 4084 c-9 -8 -16 -28 -16 -44 0 -36 24 -60 60 -60 36 0 60 24
60 60 0 16 -7 36 -16 44 -8 9 -28 16 -44 16 -16 0 -36 -7 -44 -16z" />
        <path d="M1093 384 c-15 -24 -15 -29 -2 -53 l15 -26 1451 -3 c1310 -2 1453 -1
1467 14 20 20 20 58 0 78 -14 14 -160 16 -1464 16 l-1450 0 -17 -26z" />
    </g>
</svg>