<?xml version="1.0" standalone="no"?>
<!DOCTYPE svg PUBLIC "-//W3C//DTD SVG 20010904//EN" "http://www.w3.org/TR/2001/REC-SVG-20010904/DTD/svg10.dtd">
<svg version="1.0" xmlns="http://www.w3.org/2000/svg" width="512.000000pt" height="512.000000pt" viewBox="0 0 512.000000 512.000000" preserveAspectRatio="xMidYMid meet">

    <g transform="translate(0.000000,512.000000) scale(0.100000,-0.100000)" fill="currentColor" stroke-linecap="round" stroke-linejoin="round" stroke-width="2" stroke="currentColor">
        <path d="M1745 5009 c-209 -60 -383 -110 -386 -111 -4 -2 37 -77 92 -168 55
-91 109 -190 120 -220 31 -79 36 -212 14 -320 -23 -111 -23 -272 -1 -365 30
-120 94 -237 210 -383 l106 -132 0 -213 0 -213 -95 -88 c-192 -177 -385 -439
-487 -664 -82 -180 -528 -1248 -524 -1257 2 -5 21 -16 42 -24 21 -8 50 -21 66
-30 l27 -17 -170 -213 c-94 -117 -169 -214 -167 -215 2 -2 55 -20 118 -41 150
-49 228 -91 320 -171 96 -84 159 -120 256 -144 149 -38 285 -16 436 71 165 95
268 97 456 11 131 -60 184 -77 287 -93 153 -22 296 4 475 86 208 96 294 95
470 -6 149 -85 286 -107 434 -69 100 25 151 54 261 147 98 83 173 122 330 173
55 18 102 34 104 36 2 2 -70 95 -160 208 -90 113 -164 211 -164 218 0 7 28 27
62 43 35 17 63 33 63 37 0 19 -519 1237 -564 1323 -110 213 -270 422 -446 587
l-100 93 0 211 0 212 83 103 c143 179 194 266 229 398 27 100 28 261 4 390
-22 112 -17 217 13 306 12 33 66 135 120 225 55 91 96 166 92 168 -41 15 -766
220 -769 217 -2 -2 -10 -37 -17 -77 -7 -40 -18 -99 -24 -130 l-12 -58 -384 0
-383 0 -12 53 c-6 28 -16 86 -22 127 -6 41 -14 78 -17 81 -3 4 -177 -42 -386
-102z m280 -204 c36 -169 124 -394 217 -560 73 -128 230 -345 318 -438 10 -11
182 203 259 323 124 192 218 406 275 629 18 73 38 136 42 141 9 8 365 -88 380
-102 3 -4 -14 -43 -40 -87 -70 -122 -98 -215 -104 -346 -3 -81 0 -133 13 -195
32 -156 17 -307 -42 -424 -35 -70 -71 -122 -179 -256 -91 -114 -93 -117 -96
-175 l-3 -60 -500 0 -500 0 -3 60 -3 60 -114 144 c-125 158 -167 228 -196 329
-24 83 -25 211 -3 318 12 57 15 111 12 198 -6 143 -29 220 -103 346 -26 45
-44 84 -40 88 3 4 88 30 188 58 135 38 185 49 193 40 7 -6 19 -47 29 -91z
m869 -147 c-44 -141 -173 -388 -277 -530 l-51 -70 -18 24 c-101 129 -222 344
-283 503 -13 33 -26 68 -30 78 -7 16 13 17 330 17 l336 0 -7 -22z m-299 -1572
c62 -26 74 -89 26 -137 l-30 -29 -263 2 -263 3 -3 74 c-2 41 -1 80 2 88 8 20
482 19 531 -1z m470 -76 l0 -85 -129 0 -129 0 1 80 c0 44 0 84 1 88 1 4 58 6
129 5 l127 -3 0 -85z m-805 -264 c0 -7 -11 -38 -24 -67 -88 -201 -166 -567
-166 -785 l0 -54 80 0 80 0 0 69 c0 226 87 585 191 794 l29 57 76 0 75 0 44
-93 c92 -198 158 -450 171 -659 l7 -108 78 0 79 0 0 28 c0 15 -5 77 -10 137
-20 205 -75 430 -151 609 -16 37 -29 72 -29 77 0 5 74 9 165 9 l166 0 67 -61
c188 -171 346 -378 456 -599 29 -58 151 -339 271 -624 l219 -519 -25 -16 c-50
-33 -115 -101 -149 -157 -57 -94 -125 -161 -187 -184 -99 -37 -160 -25 -297
59 -45 28 -109 57 -141 66 -84 21 -209 19 -286 -5 -62 -19 -92 -36 -229 -132
-93 -65 -148 -83 -250 -83 -128 0 -155 12 -345 142 -108 75 -187 97 -318 91
-116 -6 -153 -18 -271 -90 -121 -73 -183 -84 -278 -48 -63 23 -128 87 -182
177 -20 34 -68 91 -106 125 l-69 63 228 540 c125 297 247 578 271 624 98 188
225 355 398 524 l111 107 125 0 c100 0 126 -3 126 -14z m-1096 -2221 c93 -76
232 -114 349 -95 86 13 120 26 202 75 123 74 135 79 210 79 92 1 128 -13 236
-91 113 -81 184 -116 276 -137 186 -42 341 -2 530 135 107 78 142 92 228 93
78 1 111 -10 201 -66 129 -81 233 -106 352 -88 130 21 231 85 300 191 l39 60
86 -107 c47 -59 83 -112 80 -117 -3 -5 -25 -17 -49 -27 -64 -28 -139 -78 -226
-153 -159 -135 -303 -149 -483 -46 -126 72 -191 92 -310 93 -119 1 -163 -10
-304 -76 -135 -63 -205 -80 -316 -80 -111 0 -181 17 -316 80 -138 65 -186 77
-299 76 -115 0 -187 -21 -313 -92 -182 -102 -324 -91 -476 39 -92 78 -148 117
-218 151 -35 16 -65 33 -67 37 -3 4 34 56 81 115 l86 107 39 -60 c22 -34 59
-77 82 -96z" />
        <path d="M2820 1670 l0 -80 80 0 80 0 0 80 0 80 -80 0 -80 0 0 -80z" />
        <path d="M2070 1590 l0 -80 80 0 80 0 0 80 0 80 -80 0 -80 0 0 -80z" />
    </g>
</svg>