<?xml version="1.0" standalone="no"?>
<!DOCTYPE svg PUBLIC "-//W3C//DTD SVG 20010904//EN" "http://www.w3.org/TR/2001/REC-SVG-20010904/DTD/svg10.dtd">
<svg version="1.0" xmlns="http://www.w3.org/2000/svg" width="512.000000pt" height="512.000000pt" viewBox="0 0 512.000000 512.000000" preserveAspectRatio="xMidYMid meet">

    <g transform="translate(0.000000,512.000000) scale(0.100000,-0.100000)" fill="currentColor" stroke="none">
        <path d="M1781 5101 c-11 -11 -25 -39 -31 -63 -6 -24 -15 -56 -20 -73 -18 -59
-61 -258 -80 -373 -58 -333 -66 -621 -25 -896 28 -187 26 -181 130 -736 121
-647 118 -626 119 -815 0 -93 -2 -303 -4 -465 -6 -329 0 -389 55 -635 61 -270
80 -424 93 -752 7 -185 8 -193 32 -219 85 -92 302 -97 398 -9 l37 33 1 444 c0
244 5 513 10 598 5 85 7 265 3 400 -4 180 -1 332 12 570 10 179 23 534 29 790
6 255 13 466 15 469 3 2 7 2 9 0 3 -3 10 -209 16 -459 6 -250 19 -606 29 -790
13 -244 16 -402 12 -580 -4 -135 -2 -315 3 -400 5 -85 10 -354 10 -598 l1
-444 37 -33 c96 -88 313 -83 398 9 24 26 25 34 32 219 13 328 32 482 93 752
55 246 61 306 55 635 -2 162 -4 372 -4 465 1 189 -2 168 119 815 143 765 155
849 155 1080 0 183 -15 354 -50 552 -32 190 -95 451 -119 496 -17 33 -43 34
-137 8 -165 -46 -327 -61 -669 -60 -333 1 -510 18 -655 63 -80 26 -85 26 -109
2z m309 -156 c69 -8 187 -19 263 -24 76 -5 143 -13 149 -19 5 -5 8 -20 6 -33
-3 -23 -7 -24 -83 -27 -95 -4 -365 22 -490 46 -96 18 -104 26 -86 75 l10 25
53 -13 c29 -8 109 -21 178 -30z m1183 -6 l2 -33 -90 -18 c-124 -24 -394 -50
-490 -46 -76 3 -80 4 -83 27 -2 13 1 28 6 33 6 6 73 14 149 19 167 10 370 35
438 53 28 7 54 10 58 6 5 -4 10 -23 10 -41z m-1302 -168 c61 -11 113 -22 116
-25 11 -10 -19 -65 -55 -102 -20 -20 -59 -47 -87 -60 -57 -27 -168 -43 -179
-26 -5 8 26 189 40 231 3 9 13 11 29 7 14 -4 75 -15 136 -25z m1366 -86 c12
-61 20 -116 17 -124 -7 -20 -115 -7 -179 23 -86 39 -170 144 -134 167 8 5 25
9 39 9 14 1 66 9 115 19 50 11 97 18 105 17 10 -1 21 -34 37 -111z m-839 39
c9 -3 12 -87 12 -379 l0 -375 -23 -9 c-13 -5 -50 -12 -83 -16 -91 -12 -104
-19 -104 -59 0 -51 17 -60 106 -51 l77 7 -7 -64 c-26 -239 -37 -435 -46 -803
-6 -231 -18 -550 -27 -710 -11 -179 -18 -460 -19 -735 -1 -245 -4 -656 -6
-914 l-5 -469 -28 -15 c-43 -22 -150 -19 -183 5 l-27 20 -6 194 c-9 281 -33
460 -94 729 -54 236 -58 296 -51 765 8 494 15 431 -114 1119 -160 859 -175
987 -150 1281 16 191 17 195 73 195 109 0 234 42 301 101 40 35 88 115 110
181 5 16 18 17 143 12 76 -3 144 -7 151 -10z m437 -47 c58 -144 173 -220 358
-234 68 -5 80 -9 87 -27 16 -43 33 -323 27 -456 -7 -161 -37 -354 -158 -998
-128 -688 -121 -623 -113 -1117 7 -469 3 -529 -51 -765 -61 -269 -85 -448 -94
-729 l-6 -194 -27 -20 c-33 -24 -140 -27 -183 -5 l-28 15 -5 469 c-2 258 -5
672 -6 919 -1 280 -8 559 -19 740 -9 160 -21 477 -27 705 -9 364 -20 561 -46
798 l-7 63 76 -7 c89 -8 107 1 107 52 0 40 -13 47 -104 59 -127 15 -139 45
-42 104 45 28 66 49 90 91 l31 55 3 260 c3 292 2 289 75 283 36 -3 39 -6 62
-61z m-237 -157 c1 -121 -2 -226 -9 -257 -11 -53 -53 -118 -70 -107 -11 6 -12
557 -2 568 4 4 23 6 43 4 l35 -3 3 -205z" />
    </g>
</svg>