<svg version="1.0" xmlns="http://www.w3.org/2000/svg" width="64.000000pt" height="64.000000pt" viewBox="0 0 64.000000 64.000000" preserveAspectRatio="xMidYMid meet">

    <g transform="translate(0.000000,64.000000) scale(0.100000,-0.100000)" fill="currentColor" stroke="none">
        <path d="M77 539 c-32 -16 -60 -36 -64 -44 -5 -14 12 -133 20 -142 2 -2 23 4
47 12 23 8 45 15 48 15 3 0 2 -70 -1 -155 l-7 -155 200 0 200 0 -7 155 c-3 85
-4 155 -1 155 3 0 25 -7 48 -15 24 -8 45 -14 47 -12 8 9 25 128 20 142 -4 8
-33 28 -66 45 -46 23 -74 30 -116 30 -54 0 -55 0 -55 -30 0 -17 -9 -39 -20
-50 -43 -43 -120 -11 -120 50 0 30 0 30 -57 30 -44 -1 -72 -8 -116 -31z m153
-13 c0 -37 46 -76 90 -76 44 0 90 39 90 76 0 22 4 24 46 24 34 0 62 -9 101
-31 l55 -31 -7 -52 c-4 -28 -9 -53 -11 -56 -3 -2 -25 3 -50 13 -40 15 -45 15
-51 1 -3 -9 -3 -81 0 -160 l5 -144 -178 0 -178 0 5 144 c3 79 3 151 0 160 -6
14 -11 14 -51 -1 -25 -10 -47 -15 -50 -13 -2 3 -7 28 -11 56 l-7 51 54 32 c39
22 66 31 101 31 43 0 47 -2 47 -24z" />
    </g>
</svg>